<svg xmlns="http://www.w3.org/2000/svg" viewBox="0 0 512 512" width="100%" height="100%">
  <defs>
    <linearGradient id="grad" x1="0%" y1="0%" x2="100%" y2="100%">
      <stop offset="0%" stop-color="#25d366" />
      <stop offset="100%" stop-color="#059669" />
    </linearGradient>
    <filter id="glow" x="-20%" y="-20%" width="140%" height="140%">
      <feGaussianBlur stdDeviation="12" result="blur" />
      <feComposite in="SourceGraphic" in2="blur" operator="over" />
    </filter>
  </defs>
  <rect width="512" height="512" rx="128" fill="#040906" />
  <rect x="16" y="16" width="480" height="480" rx="112" fill="none" stroke="#25d366" stroke-width="12" stroke-opacity="0.3" />
  <path d="M 160 140 L 350 140 A 20 20 0 0 1 350 180 L 210 180 L 210 236 L 320 236 A 20 20 0 0 1 320 276 L 210 276 L 210 332 L 350 332 A 20 20 0 0 1 350 372 L 160 372 A 20 20 0 0 1 140 352 L 140 160 A 20 20 0 0 1 160 140 Z" fill="url(#grad)" filter="url(#glow)" />
</svg>